<svg width="44" height="44" viewBox="0 0 44 44" fill="none" xmlns="http://www.w3.org/2000/svg">
<path d="M27.6726 43.924H28.2067L36.9246 39.5645L37.0697 39.3594V4.56199L36.9246 4.35585L28.2067 0H27.666L27.6726 43.924Z" fill="#5294CF"/>
<path d="M16.3275 43.924H15.786L7.07552 39.5645L6.89876 39.2605L6.80908 4.73921L7.07552 4.35585L15.786 0H16.3342L16.3275 43.924Z" fill="#1F5B98"/>
<path d="M15.8013 0H28.1983V43.924H15.8013V0Z" fill="#2D72B8"/>
<path d="M41.488 20.9753L41.1934 20.91L36.987 20.5178L36.9246 20.5489L28.1989 20.1999H15.8013L7.07542 20.5489V13.895L7.06628 13.8998L7.07542 13.8804L15.8013 11.8585H28.1989L36.9246 13.8804L40.1324 15.5854V14.4892L41.488 14.3409L41.3476 14.0672L37.0554 10.998L36.9246 11.0405L28.1989 8.33666H15.8013L7.07542 11.0405V4.35596L2.51221 9.70188V14.3708L2.54753 14.3452L3.86783 14.4892V15.6079L2.51221 16.3334V20.979L2.54753 20.9753L3.86783 20.9948V22.9447L2.72871 22.9617L2.51221 22.941V27.5884L3.86783 28.3174V29.4491L2.569 29.5925L2.51221 29.5498V34.218L7.07542 39.5646V32.8807L15.8013 35.5845H28.1989L36.9504 32.8728L37.0667 32.9238L41.3024 29.8999L41.488 29.5986L40.1324 29.4491V28.3401L39.9547 28.2691L37.0554 29.832L36.9504 30.0512L28.1989 32.0613V32.0638H15.8013V32.0613L7.07542 30.0427V23.3644L15.8013 23.7122V23.7207H28.1989L36.9246 23.3644L37.1233 23.4558L41.2004 23.1047L41.488 22.9642L40.1324 22.9447V20.9948L41.488 20.9753Z" fill="#1A476F"/>
<path d="M36.9248 32.8805V39.5644L41.4882 34.2177V29.5801L36.9511 32.8726L36.9248 32.8805Z" fill="#2D72B8"/>
<path d="M36.9248 30.0572L36.9511 30.0511L41.4882 27.6109V22.9446L36.9248 23.3643V30.0572Z" fill="#2D72B8"/>
<path d="M36.9511 13.8865L36.9248 13.8804V20.5489L41.4882 20.9753V16.3113L36.9511 13.8865Z" fill="#2D72B8"/>
<path d="M36.9511 11.0666L41.4882 14.3409V9.7031L36.9248 4.35596V11.0405L36.9511 11.0496V11.0666Z" fill="#2D72B8"/>
</svg>
