<svg width="27" height="36" viewBox="0 0 27 36" fill="none" xmlns="http://www.w3.org/2000/svg">

<g clip-path="url(#clip1_110_5879)">
<path d="M13.9321 0.824463C6.23687 0.824463 0.861816 5.68609 0.861816 12.6476C0.861816 14.5822 2.0191 20.9165 2.9941 25.9123C3.69601 29.5076 4.30364 32.4091 4.31831 32.4786C4.51317 33.359 5.35197 33.935 6.23617 33.7861L6.41986 33.757L6.28855 33.6236C6.03922 33.3696 5.85623 33.061 5.75985 32.7319C5.70607 32.541 5.68093 32.3779 5.65718 32.2211C5.64601 32.1501 5.63553 32.0792 5.62226 32.0083L5.28143 29.9027C5.13057 28.9507 4.98739 28.0043 4.85609 27.0913C4.84771 27.0303 4.88892 26.9735 4.94898 26.965C5.00765 26.9572 5.06003 26.9955 5.0726 27.0523C5.25908 27.9511 5.44696 28.889 5.63134 29.8389L6.02874 31.9352C6.04201 32.0012 6.05458 32.07 6.06715 32.1388C6.09788 32.3041 6.12861 32.4758 6.16773 32.6028C6.27738 32.9617 6.50925 33.2788 6.82075 33.4959C6.85497 33.52 6.8892 33.5434 6.92482 33.564C7.10082 33.6683 7.29428 33.7392 7.49892 33.7726C7.70565 33.8066 7.91308 33.8017 8.11493 33.7577C8.33702 33.7109 8.55563 33.6108 8.7477 33.4697L8.82313 33.4143L8.77005 33.337C8.61779 33.1157 8.50953 32.8738 8.44947 32.6191C8.40477 32.4233 8.38941 32.2544 8.37544 32.0913C8.36915 32.0232 8.36356 31.9558 8.35518 31.8884L8.14985 29.7729C8.05975 28.806 7.97734 27.8561 7.9061 26.9494C7.904 26.9196 7.91308 26.8912 7.93194 26.8685C7.9508 26.8458 7.97734 26.8324 8.00667 26.8295C8.06604 26.8239 8.11562 26.8664 8.12401 26.9246C8.25182 27.8248 8.37963 28.7691 8.50255 29.7317L8.76516 31.8416C8.77354 31.9061 8.78122 31.9721 8.7896 32.0374C8.81055 32.2133 8.83011 32.38 8.86363 32.512C8.90205 32.6666 8.96351 32.8163 9.04662 32.9582C9.16535 33.1604 9.32808 33.3398 9.51806 33.4768L9.53342 33.4881C9.5439 33.4959 9.55437 33.5044 9.56485 33.5108C9.90358 33.7399 10.331 33.8357 10.7375 33.7747C11.1398 33.7144 11.5204 33.4945 11.7795 33.1724C11.8438 33.0944 11.9018 33.0093 11.9528 32.9177L11.9737 32.8794L11.959 32.8383C11.9283 32.7489 11.9011 32.6538 11.8766 32.5481C11.8452 32.4013 11.8298 32.219 11.8284 31.9912L11.8124 30.9463C11.7886 29.6225 11.7781 28.2562 11.7809 26.7678C11.7809 26.7061 11.8298 26.6564 11.8906 26.6564C11.9486 26.6564 11.9968 26.7025 12.0002 26.7614C12.0875 28.2519 12.1546 29.6168 12.2056 30.9349L12.2489 31.9785C12.2566 32.1679 12.2622 32.3041 12.2964 32.4609C12.3271 32.585 12.3732 32.7461 12.4535 32.8894C12.4577 32.8979 12.4633 32.9064 12.4724 32.9213C12.7615 33.4519 13.3238 33.791 13.9076 33.791H13.9328C14.5167 33.8038 15.1061 33.4576 15.4023 32.9156C15.4071 32.9078 15.412 32.9 15.4155 32.8936C15.4826 32.7737 15.5343 32.6318 15.5741 32.4595C15.6069 32.3119 15.6125 32.1821 15.6202 32.0019L15.6642 30.9342C15.7117 29.6856 15.7787 28.3207 15.8688 26.7607C15.8723 26.699 15.9247 26.6529 15.9847 26.6557C16.0427 26.6593 16.0881 26.7082 16.0881 26.7671C16.0895 28.3292 16.0783 29.6963 16.0553 30.9456L16.0385 31.9905C16.0371 32.136 16.0343 32.3566 15.9917 32.5467C15.9701 32.6489 15.9421 32.7468 15.9107 32.8376L15.8967 32.8787L15.9177 32.917C15.968 33.0085 16.0266 33.0937 16.0902 33.171C16.3521 33.4966 16.7328 33.7158 17.1336 33.7733C17.5408 33.8343 17.969 33.7385 18.3063 33.5122C18.3168 33.5051 18.3272 33.4973 18.3377 33.4895L18.3531 33.4782C18.5431 33.3427 18.7065 33.1632 18.8252 32.9603C18.9083 32.8184 18.9691 32.6673 19.0061 32.5127C19.0389 32.3786 19.0592 32.2112 19.0801 32.0331C19.0878 31.9692 19.0955 31.9047 19.1039 31.8408L19.3658 29.7325C19.4894 28.7712 19.6165 27.8263 19.745 26.9246C19.7492 26.8948 19.7646 26.8685 19.7883 26.8515C19.8121 26.8338 19.8407 26.826 19.8694 26.8302C19.9266 26.8387 19.9678 26.8912 19.963 26.9494C19.891 27.8575 19.8086 28.8074 19.7192 29.7722L19.5139 31.8862C19.5062 31.9536 19.4999 32.0203 19.4943 32.0877C19.4796 32.2516 19.4643 32.4211 19.4203 32.6177C19.3616 32.8738 19.2541 33.1164 19.1018 33.3384L19.0487 33.4157L19.1241 33.4711C19.3162 33.6123 19.5348 33.7116 19.7562 33.757C19.9588 33.7995 20.1648 33.8045 20.3694 33.7712C20.5755 33.7385 20.7696 33.6683 20.9463 33.564C20.982 33.5434 21.0162 33.52 21.0504 33.4966C21.3647 33.2788 21.5966 32.9617 21.7034 32.6028C21.7418 32.4736 21.7733 32.3005 21.804 32.1338C21.8166 32.0671 21.8284 31.9998 21.8417 31.9345L22.2391 29.8396C22.4235 28.8883 22.6114 27.9497 22.7978 27.0523C22.8104 26.992 22.8691 26.9537 22.9278 26.9657C22.9843 26.9778 23.022 27.0331 23.0137 27.0913C22.8824 28.0029 22.7392 28.9486 22.5883 29.9027L22.2475 32.0068C22.2342 32.0792 22.2237 32.1494 22.2126 32.2204C22.1881 32.3779 22.163 32.541 22.1106 32.7319C22.0163 33.0617 21.834 33.3703 21.5833 33.625L21.4667 33.747L21.6315 33.7868L21.6406 33.7889C21.7328 33.8045 21.8235 33.8116 21.9143 33.8116C22.6854 33.8116 23.3768 33.2668 23.5514 32.4751C23.5661 32.4048 24.1954 29.3983 24.9127 25.7136C25.88 20.7477 27.0072 14.5495 27.0072 12.6483C27.0023 5.68609 21.628 0.824463 13.9321 0.824463Z" fill="#57D1E5"/>
<path d="M24.8707 25.9023C24.1451 29.6295 23.5486 32.4282 23.5395 32.4729C23.3726 33.227 22.6658 33.7661 21.9087 33.7661C21.82 33.7661 21.7299 33.7583 21.6356 33.7427L21.547 33.7214L21.6091 33.6562C21.8654 33.3965 22.0512 33.0808 22.1476 32.7431C22.2007 32.5516 22.2258 32.3884 22.251 32.2267L22.2544 32.2012C22.2642 32.1394 22.274 32.0777 22.2852 32.0132L22.626 29.909C22.7769 28.9556 22.92 28.0092 23.0513 27.0976C23.0632 27.016 23.0101 26.9387 22.9305 26.9217C22.89 26.9132 22.8495 26.9217 22.8153 26.9437C22.7811 26.9664 22.7566 27.0018 22.7489 27.0423C22.5639 27.9305 22.376 28.8683 22.1895 29.8303L21.7928 31.9252C21.783 31.972 21.7739 32.0195 21.7656 32.0671L21.7537 32.1309C21.7237 32.2948 21.6922 32.4651 21.6552 32.5899C21.5518 32.9389 21.3262 33.2483 21.0196 33.4604C20.9868 33.4831 20.9533 33.5058 20.9184 33.5263C20.7459 33.6285 20.5573 33.6959 20.3568 33.7278C20.1578 33.7605 19.9573 33.7555 19.7597 33.7136C19.5446 33.6696 19.3323 33.5732 19.1451 33.4355L19.1053 33.4057L19.1339 33.3646C19.2903 33.1376 19.3993 32.89 19.4594 32.6282C19.5041 32.4303 19.5194 32.26 19.5341 32.0919C19.5404 32.0252 19.5467 31.9585 19.5537 31.8911L19.759 29.7771C19.8505 28.7938 19.9329 27.8439 20.0027 26.9536C20.009 26.8713 19.9511 26.7982 19.8707 26.7862C19.8295 26.7805 19.7897 26.7912 19.7569 26.816C19.7234 26.8408 19.7017 26.8777 19.6961 26.9188C19.569 27.8106 19.4412 28.7555 19.3169 29.7274L19.055 31.8358C19.0466 31.9004 19.0389 31.9649 19.0312 32.0309C19.0103 32.2061 18.99 32.3721 18.9586 32.5027C18.9223 32.6523 18.8629 32.7992 18.7826 32.9375C18.6674 33.1355 18.5088 33.3093 18.3223 33.4426L18.307 33.454C18.2972 33.4618 18.2874 33.4689 18.2776 33.4753C17.9487 33.6959 17.5324 33.7888 17.1357 33.7292C16.7446 33.6732 16.3744 33.4597 16.1202 33.1433C16.0581 33.0674 16.0015 32.9844 15.9526 32.8964L15.9414 32.8765L15.9491 32.8545C15.9812 32.7623 16.0092 32.6623 16.0315 32.5587C16.0755 32.3622 16.0776 32.1316 16.079 31.994L16.0958 30.949C16.1188 29.7154 16.13 28.3476 16.1286 26.7692C16.1286 26.6869 16.0643 26.6181 15.9826 26.6131C15.8981 26.6088 15.8255 26.6748 15.8206 26.7599C15.7312 28.3114 15.6641 29.6763 15.6167 30.9341L15.5727 32.0018C15.565 32.1792 15.5594 32.3076 15.5273 32.4502C15.4881 32.6183 15.4379 32.7559 15.3722 32.8751C15.3701 32.8794 15.3666 32.885 15.3603 32.8943C15.0796 33.4072 14.5201 33.747 13.96 33.747C13.9495 33.747 13.9397 33.747 13.93 33.747H13.9048C13.337 33.747 12.7887 33.4143 12.5073 32.8971C12.4989 32.8836 12.494 32.8765 12.4898 32.868C12.4123 32.729 12.3676 32.5722 12.3376 32.4523C12.304 32.2991 12.2984 32.1643 12.2915 31.9777L12.2482 30.9341C12.1979 29.6189 12.1308 28.2533 12.0428 26.7599C12.0379 26.6776 11.9709 26.6131 11.8892 26.6124C11.804 26.6124 11.7355 26.6826 11.7355 26.7684C11.7327 28.2625 11.7432 29.6295 11.7669 30.9476L11.783 31.9919C11.7837 32.2231 11.7998 32.4083 11.8319 32.5587C11.8556 32.6644 11.8836 32.7609 11.9157 32.8538L11.9234 32.8758L11.9122 32.8957C11.8633 32.9836 11.8068 33.0674 11.7439 33.1433C11.4911 33.4575 11.1209 33.6711 10.7291 33.7299C10.3317 33.7895 9.91753 33.6959 9.58717 33.4731C9.57879 33.4675 9.57041 33.4611 9.55784 33.4519L9.54178 33.4398C9.3567 33.3064 9.19815 33.1319 9.08291 32.9354C9.0019 32.7971 8.94253 32.6509 8.90482 32.5012C8.87269 32.3721 8.85243 32.2083 8.83078 32.0252C8.8231 31.9621 8.81542 31.8982 8.80704 31.8365L8.54443 29.7267C8.41871 28.7449 8.2909 27.7999 8.16589 26.9181C8.15331 26.8344 8.08627 26.777 8.00106 26.7848C7.95985 26.7883 7.92214 26.8075 7.8963 26.8394C7.86976 26.8713 7.85648 26.9118 7.85998 26.9536C7.93191 27.8638 8.01433 28.8137 8.10373 29.7778L8.30976 31.894C8.31744 31.9607 8.32303 32.0273 8.33002 32.099C8.34468 32.2629 8.35935 32.4317 8.40544 32.6296C8.46691 32.89 8.57726 33.1369 8.73231 33.3625L8.76094 33.4036L8.72113 33.4334C8.53395 33.571 8.32094 33.6682 8.10512 33.7136C7.90887 33.7569 7.70702 33.7619 7.50518 33.7285C7.30613 33.6959 7.11825 33.6278 6.94644 33.5256C6.91222 33.5051 6.878 33.4824 6.84517 33.4589C6.54136 33.2475 6.31577 32.9389 6.20891 32.5892C6.17189 32.4679 6.14186 32.3033 6.11253 32.1444L6.10694 32.116C6.09507 32.0515 6.08319 31.9869 6.07062 31.9259L5.67322 29.8296C5.48884 28.8783 5.30096 27.9404 5.11448 27.0416C5.09772 26.9607 5.02369 26.9082 4.94127 26.9188C4.85746 26.9316 4.79879 27.0111 4.81137 27.0962C4.94337 28.0092 5.08654 28.9556 5.2374 29.9083L5.57823 32.0146C5.58941 32.0777 5.59919 32.1401 5.60966 32.2033L5.61315 32.226C5.6376 32.3842 5.66274 32.5481 5.71722 32.7431C5.8157 33.0794 6.00218 33.3944 6.2571 33.6533L6.32694 33.7243L6.22916 33.7399C5.3694 33.8839 4.55155 33.3249 4.36088 32.4643C4.29663 32.1572 3.66805 29.3607 2.99268 25.9001C2.99268 25.9001 3.96907 32.5459 3.97256 32.5622C3.98443 32.6176 4.0005 32.675 4.02075 32.7396L4.04101 32.7985C4.05428 32.8354 4.06755 32.8716 4.08221 32.9077C4.09199 32.9311 4.10247 32.9546 4.11294 32.9787C4.12621 33.0078 4.14018 33.0361 4.15485 33.0631L4.16044 33.0737C4.17231 33.0964 4.18418 33.1198 4.19675 33.1418C4.20444 33.1546 4.21142 33.1667 4.2191 33.1787L4.22469 33.188C4.26869 33.2603 4.31619 33.3291 4.36507 33.3916L4.37206 33.4008C4.3979 33.4334 4.42654 33.4668 4.46146 33.5058L4.47612 33.5214C4.50825 33.5561 4.53968 33.5888 4.5739 33.62L4.58438 33.6299C4.96223 33.9797 5.44903 34.1719 5.95608 34.1719C6.06783 34.1719 6.18027 34.1627 6.29062 34.1435L7.04632 34.0236C7.17273 34.0719 7.30473 34.1081 7.43953 34.1301C7.68817 34.1712 7.94239 34.1648 8.18544 34.1116C8.45433 34.0549 8.71904 33.9343 8.95161 33.7633L9.1332 33.6292C9.19047 33.681 9.24984 33.7292 9.3092 33.7725L9.32108 33.7817C9.33644 33.7938 9.3532 33.8059 9.36857 33.8158C9.77295 34.0889 10.2968 34.2067 10.7843 34.1336C11.2725 34.0605 11.7327 33.7945 12.047 33.4043C12.1036 33.3362 12.1574 33.261 12.207 33.1801C12.5673 33.7739 13.2253 34.1528 13.9027 34.1528H13.9593C14.6333 34.1528 15.2905 33.7739 15.6544 33.1809C15.7033 33.2603 15.757 33.3355 15.815 33.4057C16.1307 33.7981 16.5916 34.0634 17.0791 34.1329C17.1748 34.1471 17.2726 34.1542 17.3718 34.1542C17.7713 34.1542 18.1701 34.0343 18.4955 33.8158C18.513 33.8037 18.5277 33.7931 18.543 33.7817L18.5535 33.7739C18.6143 33.7307 18.6729 33.6824 18.7295 33.632L18.9111 33.7661C19.1437 33.9371 19.4098 34.0577 19.6801 34.113C19.9217 34.1641 20.1746 34.1698 20.4176 34.1301C20.588 34.1031 20.7528 34.0542 20.9086 33.9853L21.547 34.14L21.5763 34.1457C21.6852 34.1641 21.7963 34.1733 21.9073 34.1733C22.8474 34.1733 23.6806 33.4937 23.8881 32.5573C23.895 32.5239 24.8721 25.8994 24.8721 25.8994L24.8707 25.9023Z" fill="#3B2D55"/>
<path d="M4.60326 4.04443C2.2419 6.13437 0.861816 9.12101 0.861816 12.6475C0.861816 15.974 4.25824 32.3125 4.29316 32.4778C4.36999 32.8269 4.61583 33.1028 4.85749 33.3298C4.00891 29.2046 1.2669 15.8555 1.2669 12.7561C1.2669 9.28205 2.48355 6.28406 4.60326 4.04443Z" fill="#93E1EF"/>
<path d="M10.4329 5.92798C7.29771 5.92798 4.74707 8.51877 4.74707 11.7033C4.74707 14.8879 7.29771 17.4787 10.4329 17.4787C13.5681 17.4787 16.1188 14.8879 16.1188 11.7033C16.1188 8.51877 13.5681 5.92798 10.4329 5.92798Z" fill="#4D9BB6"/>
<path d="M4.18359 11.2373C4.18359 14.4218 6.73423 17.0126 9.86945 17.0126C13.0047 17.0126 15.5553 14.4218 15.5553 11.2373C15.5553 8.0527 13.0047 5.46191 9.86945 5.46191C6.73423 5.46191 4.18359 8.0527 4.18359 11.2373Z" fill="white"/>
<path d="M6.3716 19.3915C9.82809 19.9037 13.4536 19.0283 16.3087 16.9894C16.7055 16.7205 17.114 17.3044 16.7257 17.5952C15.2122 18.6438 13.5046 19.3986 11.7215 19.8079C9.93984 20.218 8.08413 20.2832 6.2829 20.0002C6.11738 19.9739 6.00423 19.8171 6.02937 19.649C6.05452 19.4823 6.20747 19.3674 6.3723 19.3908" fill="#4D9BB6"/>
<path d="M16.709 17.9527C16.6119 17.4866 16.1949 17.1213 15.7375 17.105C15.257 17.0709 15.2884 16.3537 15.7703 16.3636C16.1607 16.4161 16.5239 16.6268 16.7767 16.9141C16.9932 17.1263 17.4696 18.0797 16.966 18.1499C16.8424 18.1599 16.7327 18.0733 16.7083 17.9527" fill="#4D9BB6"/>
<path d="M6.25783 19.1303C9.71432 19.6425 13.3398 18.767 16.195 16.7282C16.5917 16.4593 17.0003 17.0431 16.6119 17.334C15.0985 18.3825 13.3908 19.1373 11.6077 19.5467C9.82607 19.9567 7.97036 20.022 6.16913 19.7389C6.00361 19.7127 5.89046 19.5559 5.91561 19.3878C5.94075 19.2211 6.0937 19.1061 6.25853 19.1295" fill="#3B2D55"/>
<path d="M16.5952 17.6922C16.4981 17.2261 16.0812 16.8608 15.6237 16.8445C15.1432 16.8104 15.1746 16.0932 15.6565 16.1031C16.047 16.1556 16.4101 16.3663 16.663 16.6536C16.8795 16.8658 17.3558 17.8199 16.8522 17.8894C16.7286 17.8994 16.619 17.8128 16.5945 17.6922" fill="#3B2D55"/>
<path d="M13.75 11.3218C13.6669 13.7473 11.9613 15.0299 10.8732 14.7681C9.96105 14.5489 9.84791 12.4902 10.4185 11.9503C10.7929 11.5956 11.5374 11.4991 11.5465 11.243C11.5555 10.9869 10.8194 10.838 10.4702 10.4577C9.9387 9.87813 10.1929 7.83288 11.1176 7.67894C12.2204 7.4952 13.8338 8.89559 13.7507 11.3211" fill="#3B2D55"/>
</g>
<defs>
<clipPath id="clip1_110_5879">
<rect width="27" height="36" fill="white" transform="translate(0.585449 0.824463)"/>
</clipPath>
</defs>
</svg>
